<svg width="24" height="23" viewBox="0 0 24 23" fill="none" xmlns="http://www.w3.org/2000/svg">
<path fill-rule="evenodd" clip-rule="evenodd" d="M17.1333 12.264C20.3734 12.264 23 9.74247 23 6.632C23 3.52153 20.3734 1 17.1333 1C13.8933 1 11.2667 3.52153 11.2667 6.632C11.2667 9.74247 13.8933 12.264 17.1333 12.264Z" stroke="#292C3E" stroke-width="1.5" stroke-linecap="round" stroke-linejoin="round"/>
<path d="M17.1333 3.81601V9.44801" stroke="#292C3E" stroke-width="1.5" stroke-linecap="round" stroke-linejoin="round"/>
<path d="M17.1333 9.44797L14.9333 7.33597" stroke="#292C3E" stroke-width="1.5" stroke-linecap="round" stroke-linejoin="round"/>
<path d="M17.1333 9.44797L19.3333 7.33597" stroke="#292C3E" stroke-width="1.5" stroke-linecap="round" stroke-linejoin="round"/>
<path fill-rule="evenodd" clip-rule="evenodd" d="M15.6667 22.12H8.33333L9.06666 19.304H14.9333L15.6667 22.12V22.12Z" stroke="#292C3E" stroke-width="1.5" stroke-linecap="round" stroke-linejoin="round"/>
<path d="M6.13333 22.12H17.8667" stroke="#292C3E" stroke-width="1.5" stroke-linecap="round" stroke-linejoin="round"/>
<path d="M1 16.488H23" stroke="#292C3E" stroke-width="1.5" stroke-linecap="round" stroke-linejoin="round"/>
<path d="M23 13.672V16.488C23 18.0432 21.6867 19.304 20.0667 19.304H3.93333C2.3133 19.304 1 18.0432 1 16.488V6.63201C1 5.07678 2.3133 3.81601 3.93333 3.81601H8.33333" stroke="#292C3E" stroke-width="1.5" stroke-linecap="round" stroke-linejoin="round"/>
</svg>
